<?xml version="1.0" standalone="no"?><!DOCTYPE svg PUBLIC "-//W3C//DTD SVG 1.1//EN" "http://www.w3.org/Graphics/SVG/1.1/DTD/svg11.dtd"><svg t="1609395183632" class="icon" viewBox="0 0 1024 1024" version="1.1" xmlns="http://www.w3.org/2000/svg" p-id="15873" xmlns:xlink="http://www.w3.org/1999/xlink" width="200" height="200"><defs><style type="text/css"></style></defs><path d="M512 1024c182.994824 0 331.294118-144.624941 331.294118-323.102118C843.294118 581.993412 732.882824 408.576 512 180.705882 291.117176 408.576 180.705882 581.993412 180.705882 700.897882 180.705882 879.435294 329.005176 1024 512 1024z" fill="#3296FA" p-id="15874"></path><path d="M120.470588 421.647059c66.56 0 120.470588-51.802353 120.470588-115.651765C240.941176 263.288471 200.764235 201.487059 120.470588 120.470588 40.176941 201.547294 0 263.348706 0 305.995294 0 369.844706 53.910588 421.647059 120.470588 421.647059z" fill="#8DC6FF" p-id="15875"></path><path d="M662.588235 180.705882c33.249882 0 60.235294-33.611294 60.235294-75.113411C722.823529 77.944471 702.765176 42.767059 662.588235 0c-40.176941 42.767059-60.235294 77.944471-60.235294 105.592471C602.352941 147.094588 629.338353 180.705882 662.588235 180.705882z" fill="#B5DAFF" p-id="15876"></path><path d="M933.647059 602.352941c49.874824 0 90.352941-43.188706 90.352941-96.436706 0-35.538824-30.117647-83.727059-90.352941-144.50447-60.235294 60.837647-90.352941 109.025882-90.352941 144.50447 0 53.248 40.478118 96.436706 90.352941 96.436706z" fill="#79BCFF" p-id="15877"></path></svg>